<svg xmlns="http://www.w3.org/2000/svg" xmlns:xlink="http://www.w3.org/1999/xlink" width="1920" height="1080" viewBox="0 0 1920 1080">
  <defs>
    <clipPath id="clip-Web_1920_6">
      <rect width="1920" height="1080"/>
    </clipPath>
  </defs>
  <g id="Web_1920_6" data-name="Web 1920 – 6" clip-path="url(#clip-Web_1920_6)">
    <rect width="1920" height="1080" fill="#ec565c"/>
    <rect id="Rectangle_3" data-name="Rectangle 3" width="1559" height="850" transform="translate(398 118)" fill="#e9bb8c"/>
    <rect id="Rectangle_2" data-name="Rectangle 2" width="918" height="190" transform="translate(0 228)" fill="#eede90"/>
    <g id="Rectangle_1" data-name="Rectangle 1" transform="translate(59 46)" fill="none" stroke="#fff" stroke-width="2">
      <rect width="1799" height="988" rx="18" stroke="none"/>
      <rect x="1" y="1" width="1797" height="986" rx="17" fill="none"/>
    </g>
    <line id="Line_223" data-name="Line 223" x2="1566.345" transform="translate(463.992 535.5)" fill="none" stroke="#fff" stroke-width="2"/>
    <line id="Line_224" data-name="Line 224" x2="1566.345" transform="translate(463.992 551.5)" fill="none" stroke="#fff" stroke-width="2"/>
    <line id="Line_225" data-name="Line 225" x2="1566.345" transform="translate(463.992 567.5)" fill="none" stroke="#fff" stroke-width="2"/>
    <line id="Line_226" data-name="Line 226" x2="1566.345" transform="translate(463.992 583.5)" fill="none" stroke="#fff" stroke-width="2"/>
    <line id="Line_227" data-name="Line 227" x2="1566.345" transform="translate(463.992 599.5)" fill="none" stroke="#fff" stroke-width="2"/>
    <line id="Line_228" data-name="Line 228" x2="1566.345" transform="translate(463.992 615.5)" fill="none" stroke="#fff" stroke-width="2"/>
    <line id="Line_229" data-name="Line 229" x2="1566.345" transform="translate(463.992 631.5)" fill="none" stroke="#fff" stroke-width="2"/>
    <line id="Line_230" data-name="Line 230" x2="1566.345" transform="translate(463.992 647.5)" fill="none" stroke="#fff" stroke-width="2"/>
    <line id="Line_231" data-name="Line 231" x2="1566.345" transform="translate(463.992 663.5)" fill="none" stroke="#fff" stroke-width="2"/>
    <line id="Line_232" data-name="Line 232" x2="1566.345" transform="translate(463.992 679.5)" fill="none" stroke="#fff" stroke-width="2"/>
    <line id="Line_233" data-name="Line 233" x2="1566.345" transform="translate(463.992 695.5)" fill="none" stroke="#fff" stroke-width="2"/>
    <line id="Line_234" data-name="Line 234" x2="1566.345" transform="translate(463.992 711.5)" fill="none" stroke="#fff" stroke-width="2"/>
    <line id="Line_235" data-name="Line 235" x2="1566.345" transform="translate(463.992 727.5)" fill="none" stroke="#fff" stroke-width="2"/>
    <line id="Line_236" data-name="Line 236" x2="1566.345" transform="translate(463.992 743.5)" fill="none" stroke="#fff" stroke-width="2"/>
    <line id="Line_237" data-name="Line 237" x2="1566.345" transform="translate(463.992 759.5)" fill="none" stroke="#fff" stroke-width="2"/>
    <line id="Line_238" data-name="Line 238" x2="1566.345" transform="translate(463.992 775.5)" fill="none" stroke="#fff" stroke-width="2"/>
    <line id="Line_239" data-name="Line 239" x2="1566.345" transform="translate(463.992 791.5)" fill="none" stroke="#fff" stroke-width="2"/>
    <line id="Line_240" data-name="Line 240" x2="1566.345" transform="translate(463.992 807.5)" fill="none" stroke="#fff" stroke-width="2"/>
    <line id="Line_241" data-name="Line 241" x2="1566.345" transform="translate(463.992 823.5)" fill="none" stroke="#fff" stroke-width="2"/>
    <line id="Line_242" data-name="Line 242" x2="1566.345" transform="translate(463.992 839.5)" fill="none" stroke="#fff" stroke-width="2"/>
    <line id="Line_243" data-name="Line 243" x2="1566.345" transform="translate(463.992 855.5)" fill="none" stroke="#fff" stroke-width="2"/>
    <line id="Line_244" data-name="Line 244" x2="1566.345" transform="translate(463.992 871.5)" fill="none" stroke="#fff" stroke-width="2"/>
    <line id="Line_245" data-name="Line 245" x2="1566.345" transform="translate(463.992 887.5)" fill="none" stroke="#fff" stroke-width="2"/>
    <line id="Line_246" data-name="Line 246" x2="1566.345" transform="translate(463.992 903.5)" fill="none" stroke="#fff" stroke-width="2"/>
    <line id="Line_247" data-name="Line 247" x2="1566.345" transform="translate(463.992 919.5)" fill="none" stroke="#fff" stroke-width="2"/>
    <line id="Line_248" data-name="Line 248" x2="1566.345" transform="translate(463.992 935.5)" fill="none" stroke="#fff" stroke-width="2"/>
    <line id="Line_249" data-name="Line 249" x2="1566.345" transform="translate(463.992 951.5)" fill="none" stroke="#fff" stroke-width="2"/>
    <text id="Routes" transform="translate(439 371)" fill="#fff" font-size="133" font-family="SourceCodePro-Regular, Source Code Pro"><tspan x="0" y="0">Routes</tspan></text>
    <line id="Line_256" data-name="Line 256" x2="1566.345" transform="translate(463.992 439.5)" fill="none" stroke="#fff" stroke-width="2"/>
    <line id="Line_257" data-name="Line 257" x2="1566.345" transform="translate(463.992 455.5)" fill="none" stroke="#fff" stroke-width="2"/>
    <line id="Line_258" data-name="Line 258" x2="1566.345" transform="translate(463.992 471.5)" fill="none" stroke="#fff" stroke-width="2"/>
    <line id="Line_259" data-name="Line 259" x2="1566.345" transform="translate(463.992 487.5)" fill="none" stroke="#fff" stroke-width="2"/>
    <line id="Line_260" data-name="Line 260" x2="1566.345" transform="translate(463.992 503.5)" fill="none" stroke="#fff" stroke-width="2"/>
    <line id="Line_261" data-name="Line 261" x2="1566.345" transform="translate(463.992 519.5)" fill="none" stroke="#fff" stroke-width="2"/>
    <path id="ic_visibility_24px" d="M34.394,4.5A35.9,35.9,0,0,0,1,27.269a35.873,35.873,0,0,0,66.788,0A35.9,35.9,0,0,0,34.394,4.5Zm0,37.948A15.179,15.179,0,1,1,49.573,27.269,15.185,15.185,0,0,1,34.394,42.448Zm0-24.286A9.107,9.107,0,1,0,43.5,27.269,9.1,9.1,0,0,0,34.394,18.161Z" transform="translate(305 460.219)" fill="#fff"/>
    <path id="ic_home_24px" d="M26.287,54.609V36.394H38.43V54.609H53.609V30.322h9.107L32.358,3,2,30.322h9.107V54.609Z" transform="translate(304.072 305)" fill="#fff"/>
    <path id="ic_add_circle_outline_24px" d="M35.394,17.179H29.322V29.322H17.179v6.072H29.322V47.537h6.072V35.394H47.537V29.322H35.394ZM32.358,2A30.358,30.358,0,1,0,62.716,32.358,30.369,30.369,0,0,0,32.358,2Zm0,54.644A24.286,24.286,0,1,1,56.645,32.358,24.319,24.319,0,0,1,32.358,56.644Z" transform="translate(311 613.187)" fill="#fff"/>
    <path id="ic_create_24px" d="M3,46.265V57.65H14.384L47.96,24.074,36.576,12.689Zm53.764-31a3.023,3.023,0,0,0,0-4.28l-7.1-7.1a3.023,3.023,0,0,0-4.28,0L39.824,9.441,51.209,20.825l5.556-5.556Z" transform="translate(314.072 757.908)" fill="#fff"/>
    <path id="ic_directions_run_24px" d="M35.07,13.623A6.072,6.072,0,1,0,29,7.552,6.089,6.089,0,0,0,35.07,13.623Zm-10.929,42.2,3.036-13.358,6.375,6.072V66.75h6.072V43.981L33.248,37.91,35.07,28.8a22.23,22.23,0,0,0,16.7,7.59V30.32a14.933,14.933,0,0,1-13.054-7.286l-3.036-4.857a6.261,6.261,0,0,0-5.161-3.036c-.911,0-1.518.3-2.429.3L12.3,22.123V36.392h6.072V26.07l5.464-2.125L18.98,48.535,4.1,45.5,2.89,51.571Z" transform="translate(315.182 898.75)" fill="#fff"/>
    <rect id="Rectangle_9" data-name="Rectangle 9" width="467" height="80" rx="7" transform="translate(451 433)" fill="#fff"/>
    <rect id="Rectangle_24" data-name="Rectangle 24" width="467" height="80" rx="7" transform="translate(451 542)" fill="#fff"/>
    <rect id="Rectangle_25" data-name="Rectangle 25" width="467" height="80" rx="7" transform="translate(451 651)" fill="#fff"/>
    <rect id="Rectangle_26" data-name="Rectangle 26" width="467" height="80" rx="7" transform="translate(451 760)" fill="#fff"/>
    <rect id="Rectangle_27" data-name="Rectangle 27" width="467" height="80" rx="7" transform="translate(451 869)" fill="#fff"/>
    <rect id="Rectangle_32" data-name="Rectangle 32" width="832" height="659" rx="7" transform="translate(990 344)" fill="#fff"/>
    <text id="Run_One" data-name="Run One" transform="translate(471 454)" fill="#e9bb8c" font-size="30" font-family="SourceCodePro-Regular, Source Code Pro"><tspan x="142.5" y="30">Run One</tspan></text>
    <text id="Run_Two" data-name="Run Two" transform="translate(471 563)" fill="#e9bb8c" font-size="30" font-family="SourceCodePro-Regular, Source Code Pro"><tspan x="142.5" y="30">Run Two</tspan></text>
    <text id="Run_Three" data-name="Run Three" transform="translate(471 672)" fill="#e9bb8c" font-size="30" font-family="SourceCodePro-Regular, Source Code Pro"><tspan x="142.5" y="30">Run Three</tspan></text>
    <text id="Run_Four" data-name="Run Four" transform="translate(471 781)" fill="#e9bb8c" font-size="30" font-family="SourceCodePro-Regular, Source Code Pro"><tspan x="142.5" y="30">Run Four</tspan></text>
    <text id="Run_Fix" data-name="Run Fix" transform="translate(471 890)" fill="#e9bb8c" font-size="30" font-family="SourceCodePro-Regular, Source Code Pro"><tspan x="142.5" y="30">Run Fix</tspan></text>
  </g>
</svg>
